<?xml version="1.0" encoding="UTF-8" standalone="no"?>
<svg width="129px" height="94px" viewBox="0 0 129 94" version="1.1" xmlns="http://www.w3.org/2000/svg" xmlns:xlink="http://www.w3.org/1999/xlink" xmlns:sketch="http://www.bohemiancoding.com/sketch/ns">
    <!-- Generator: Sketch 3.4.2 (15857) - http://www.bohemiancoding.com/sketch -->
    <title>logo</title>
    <desc>Created with Sketch.</desc>
    <defs></defs>
    <g id="Page-1" stroke="none" stroke-width="1" fill="none" fill-rule="evenodd" sketch:type="MSPage">
        <g id="logo" sketch:type="MSLayerGroup" fill-opacity="0.17" fill="#000000">
            <g id="Page-1" sketch:type="MSShapeGroup">
                <g id="Desktop-HD">
                    <path d="M116.250275,93.985714 L118.451798,93.985714 L126.798477,93.985714 L129,93.985714 L129,91.780474 L129,87.460416 L129,54.149097 L129,49.9999996 L104,36 L99.132475,46.317434 L116.250275,54.809476 L116.250275,87.460416 L116.250275,91.780474 L116.250275,93.985714 Z M0,0.067076 L0,6.592375 L0,87.169754 L0,91.489813 L0.0032240001,93.872726 L2.211343,93.872726 L6.250439,93.872726 L101.413615,93.872726 L101.413615,91.649304 L101.413615,83.009186 L101.413615,80.803946 L99.212092,80.803946 L95.172996,80.803946 L12,81 L12,13.0505981 L112.723712,13.050598 L116.762808,13.050598 L118.964331,13.050598 L118.964331,10.845358 L118.964331,2.20524 L118.964331,0 L116.762808,0 L112.723712,0 L6.243843,0 L2.204747,0 L0.003224,0 L2.204747,0.067076 L0,0.067076 Z" id="Logo-Copy-2"></path>
                </g>
            </g>
        </g>
    </g>
</svg>