<?xml version="1.0" encoding="UTF-8" standalone="no"?>
<svg width="151px" height="110px" viewBox="0 0 151 110" version="1.1" xmlns="http://www.w3.org/2000/svg" xmlns:xlink="http://www.w3.org/1999/xlink" xmlns:sketch="http://www.bohemiancoding.com/sketch/ns">
    <!-- Generator: Sketch 3.4.2 (15857) - http://www.bohemiancoding.com/sketch -->
    <title>Logo</title>
    <desc>Created with Sketch.</desc>
    <defs></defs>
    <g id="Page-1" stroke="none" stroke-width="1" fill="none" fill-rule="evenodd" sketch:type="MSPage">
        <g id="Desktop-HD" sketch:type="MSArtboardGroup" transform="translate(-645.000000, -130.000000)" fill-opacity="0.1" fill="#FFFFFF">
            <path d="M781.075903,232.376145 L781.075903,237.432958 L781.075903,240.014286 L783.65288,240.014286 L793.423024,240.014286 L796,240.014286 L796,237.432958 L796,232.376145 L796,193.383826 L796,188.327013 L796,185.745686 L793.423023,185.745686 L793.372584,188.327013 L794.648689,186.084402 L790.608164,183.777467 L774.043465,174.319863 L769.952501,171.984131 L767.54851,170.611573 L766.352549,173.111066 L762.076063,182.048683 L761.038788,184.216531 L763.123806,185.406971 L767.21477,187.742703 L782.376775,196.39944 L781.075903,194.156829 L781.075903,232.376145 Z M786.229856,192.65695 L784.928984,191.914218 L769.766979,183.257481 L765.676016,180.921748 L766.723759,184.280036 L771.000244,175.342418 L767.400292,176.469353 L771.491256,178.805086 L788.055955,188.26269 L792.09648,190.569624 L792.689731,190.908341 L793.372584,190.908341 L793.423023,188.327013 L790.846047,188.327013 L790.846047,193.383826 L790.846047,232.376145 L790.846047,237.432958 L793.423023,234.851631 L783.65288,234.851631 L786.229856,237.432958 L786.229856,232.376145 L786.229856,194.156829 L786.229856,192.65695 Z M647.58075,132.581327 L647.58075,135.162655 L652.308684,135.162655 L776.947911,135.162655 L781.675845,135.162655 L779.098868,132.581327 L779.098868,142.694953 L781.675845,140.113626 L776.947911,140.113626 L657.673556,140.113626 L655.09658,140.113626 L655.09658,142.694953 L655.09658,227.165792 L655.09658,229.747119 L657.673556,229.747119 L756.40405,229.747119 L761.131984,229.747119 L758.555007,227.165792 L758.555007,237.279418 L761.131984,234.69809 L756.40405,234.69809 L652.316405,234.69809 L647.588471,234.69809 L647.588471,237.279418 L650.165448,237.279418 L650.165448,234.511399 L647.588471,234.511399 L647.576977,237.092726 L650.153953,237.092726 L650.153953,232.035913 L650.153953,137.716655 L650.153953,132.659842 L647.576976,132.659842 L647.576976,135.24117 L650.157727,135.24117 L650.157727,132.659842 L647.58075,132.581327 Z M647.58075,132.659842 L647.58075,130.078515 L645,130.078515 L645,132.659842 L645,137.716655 L645,232.035913 L645,237.092726 L645,239.674054 L647.576977,239.674054 L647.588471,237.092726 L645.011495,237.092726 L645.011495,239.860745 L647.588471,239.860745 L652.316405,239.860745 L756.40405,239.860745 L761.131984,239.860745 L763.70896,239.860745 L763.70896,237.279418 L763.70896,227.165792 L763.70896,224.584464 L761.131984,224.584464 L756.40405,224.584464 L657.673556,224.584464 L660.250533,227.165792 L660.250533,142.694953 L657.673556,145.276281 L776.947911,145.276281 L781.675845,145.276281 L784.252821,145.276281 L784.252821,142.694953 L784.252821,132.581327 L784.252821,130 L781.675845,130 L776.947911,130 L652.308684,130 L647.58075,130 L645.003774,130 L645.003774,132.581327 L647.58075,132.659842 Z" id="Logo" sketch:type="MSShapeGroup"></path>
        </g>
    </g>
</svg>